<svg width="134" height="134" viewBox="0 0 134 134" fill="none" xmlns="http://www.w3.org/2000/svg">
<path d="M110.56 100.898C109.747 101.3 108.93 101.697 108.087 102.058C98.8267 106.03 89.0283 106.937 79.805 105.257C92.3233 100.783 101.298 88.855 101.298 74.8017C101.298 56.925 86.8033 42.4317 68.9283 42.4317C51.0516 42.4317 36.5583 56.925 36.5583 74.8017C36.5583 75.1871 36.584 75.5654 36.6097 75.9447C36.6211 76.1132 36.6325 76.282 36.6416 76.4517L36.635 76.455C36.6417 76.5949 36.6469 76.7344 36.652 76.8739C36.6609 77.1131 36.6697 77.3522 36.6866 77.5933C36.6909 77.6474 36.6972 77.7001 36.7029 77.7532C36.7061 77.7836 36.7092 77.8141 36.7116 77.845C36.7251 78.0083 36.7416 78.1733 36.7583 78.3367C39.2617 107.517 64.8617 117.108 94.1667 115C101.302 114.487 117.292 109.648 123.333 106.667C110.56 123.333 89.8517 133.333 72.5 133.333C34.1784 133.333 0 107.488 0 69.1667C0 30.845 30.2334 0 68.555 0C96.8833 0 119.223 12.7767 130 37.11C132.258 42.63 133.333 51.6117 133.333 57.9433C133.333 75.985 125.417 92.9217 110.56 100.898Z" fill="white"/>
<path d="M69.1657 92.9414C79.2913 92.9414 87.5 84.7327 87.5 74.609C87.5 64.4834 79.2913 56.2767 69.1657 56.2767C59.0421 56.2767 50.8333 64.4854 50.8333 74.609C50.8333 84.7327 59.0421 92.9414 69.1657 92.9414Z" fill="white"/>
</svg>
