<svg width="20" height="21" viewBox="0 0 20 21" fill="none" xmlns="http://www.w3.org/2000/svg">
<mask id="mask0_13004_15413" style="mask-type:luminance" maskUnits="userSpaceOnUse" x="0" y="4" width="20" height="17">
<path fill-rule="evenodd" clip-rule="evenodd" d="M0 4.54004H19.5859V20.7216H0V4.54004Z" fill="white"/>
</mask>
<g mask="url(#mask0_13004_15413)">
<path fill-rule="evenodd" clip-rule="evenodd" d="M4.7155 6.04004C4.2745 6.04004 2.8005 6.21804 2.3775 8.50204L1.6055 14.502C1.3545 16.185 1.5485 17.403 2.1835 18.14C2.8105 18.868 3.9325 19.222 5.6125 19.222H13.9605C15.0085 19.222 16.4395 19.013 17.3035 18.015C17.9895 17.224 18.2255 16.046 18.0055 14.513L17.2265 8.46104C16.8945 6.97004 16.0185 6.04004 14.8945 6.04004H4.7155ZM13.9605 20.722H5.6125C3.4695 20.722 1.9765 20.197 1.0475 19.118C0.1145 18.036 -0.1975 16.413 0.1205 14.295L0.8965 8.26904C1.4065 5.50604 3.2715 4.54004 4.7155 4.54004H14.8945C16.3445 4.54004 18.1075 5.50304 18.7025 8.20404L19.4915 14.311C19.7745 16.282 19.4205 17.863 18.4375 18.997C17.4595 20.125 15.9115 20.722 13.9605 20.722Z" fill="#9E9E9E"/>
</g>
<path fill-rule="evenodd" clip-rule="evenodd" d="M12.7433 10.3237H12.6973C12.2833 10.3237 11.9473 9.98773 11.9473 9.57373C11.9473 9.15973 12.2833 8.82373 12.6973 8.82373C13.1113 8.82373 13.4703 9.15973 13.4703 9.57373C13.4703 9.98773 13.1573 10.3237 12.7433 10.3237Z" fill="#9E9E9E"/>
<path fill-rule="evenodd" clip-rule="evenodd" d="M6.9122 10.3237H6.8672C6.4532 10.3237 6.1172 9.98773 6.1172 9.57373C6.1172 9.15973 6.4532 8.82373 6.8672 8.82373C7.2812 8.82373 7.6402 9.15973 7.6402 9.57373C7.6402 9.98773 7.3262 10.3237 6.9122 10.3237Z" fill="#9E9E9E"/>
<path fill-rule="evenodd" clip-rule="evenodd" d="M14.0978 5.82C13.6838 5.82 13.3478 5.484 13.3478 5.07C13.3478 3.101 11.7458 1.5 9.7778 1.5H9.7628C8.8218 1.5 7.9048 1.879 7.2398 2.54C6.5718 3.205 6.1888 4.128 6.1888 5.07C6.1888 5.484 5.8528 5.82 5.4388 5.82C5.0248 5.82 4.6888 5.484 4.6888 5.07C4.6888 3.731 5.2328 2.422 6.1808 1.477C7.1258 0.538 8.4288 0 9.7598 0H9.7808C12.5738 0 14.8478 2.274 14.8478 5.07C14.8478 5.484 14.5118 5.82 14.0978 5.82Z" fill="#9E9E9E"/>
</svg>
