<svg width="24" height="24" viewBox="0 0 24 24" fill="none" xmlns="http://www.w3.org/2000/svg">
<path fill-rule="evenodd" clip-rule="evenodd" d="M8.3287 16.1354C8.3287 15.7212 8.66449 15.3854 9.0787 15.3854H14.8937C15.3079 15.3854 15.6437 15.7212 15.6437 16.1354C15.6437 16.5496 15.3079 16.8854 14.8937 16.8854H9.0787C8.66449 16.8854 8.3287 16.5496 8.3287 16.1354Z" fill="#9E9E9E"/>
<path fill-rule="evenodd" clip-rule="evenodd" d="M6.80985 5.97765C6.39731 6.35978 6.02689 6.68822 5.69762 6.97845C5.65114 7.01941 5.60563 7.05949 5.56104 7.09875C5.28213 7.34435 5.03924 7.55824 4.82107 7.75963C4.31576 8.22608 3.99657 8.57827 3.77084 8.97216C3.31834 9.76176 3.14999 10.869 3.14999 13.713C3.14999 15.7691 3.27306 17.2451 3.55115 18.3153C3.82415 19.3658 4.23111 19.9679 4.77021 20.3548C5.33325 20.759 6.13704 20.9997 7.34744 21.1245C8.55665 21.2491 10.065 21.25 11.986 21.25C13.907 21.25 15.4153 21.2491 16.6245 21.1245C17.835 20.9997 18.6387 20.759 19.2018 20.3548C19.7409 19.9679 20.1478 19.3658 20.4208 18.3153C20.6989 17.2451 20.822 15.7691 20.822 13.713C20.822 10.8689 20.6539 9.76166 20.2016 8.97204C19.976 8.57818 19.6569 8.22601 19.1517 7.75958C18.9334 7.55801 18.6903 7.34391 18.4111 7.09801C18.3667 7.05898 18.3215 7.01914 18.2753 6.97843C17.9461 6.6882 17.5757 6.35976 17.1631 5.97762C16.9189 5.78041 16.6659 5.56703 16.4037 5.34588C15.8326 4.86414 15.2177 4.34554 14.5544 3.87695C13.5695 3.18118 12.6775 2.75 11.958 2.75C11.2409 2.75 10.361 3.18121 9.38912 3.87803C8.75484 4.33278 8.17461 4.827 7.62942 5.29137C7.34775 5.53128 7.07544 5.76323 6.80985 5.97765ZM8.51512 2.65897C9.51544 1.94179 10.7321 1.25 11.958 1.25C13.1805 1.25 14.407 1.93632 15.4199 2.6518C16.1358 3.15759 16.8441 3.75449 17.437 4.25416C17.6899 4.46729 17.9218 4.66274 18.1244 4.82587C18.138 4.83681 18.1512 4.84822 18.164 4.86008C18.57 5.23662 18.9354 5.5607 19.2672 5.85318C19.3122 5.89284 19.3567 5.93205 19.4007 5.97083C19.6786 6.21553 19.9368 6.4429 20.1692 6.65748C20.7085 7.15537 21.1624 7.63157 21.5032 8.22646C22.1836 9.41434 22.322 10.9261 22.322 13.713C22.322 15.8004 22.2002 17.432 21.8726 18.6926C21.54 19.9727 20.9805 20.9245 20.0765 21.5734C19.1964 22.2051 18.0803 22.4824 16.7783 22.6166C15.4837 22.75 13.8994 22.75 12.0231 22.75H11.9488C10.0726 22.75 8.4883 22.75 7.19364 22.6166C5.89164 22.4824 4.77561 22.2051 3.89552 21.5734C2.9915 20.9245 2.43203 19.9727 2.09937 18.6926C1.77181 17.432 1.64999 15.8004 1.64999 13.713C1.64999 10.926 1.78865 9.41424 2.4694 8.22634C2.8103 7.63148 3.26429 7.1553 3.80364 6.65743C4.03582 6.4431 4.29375 6.216 4.5713 5.97161C4.61564 5.93257 4.66048 5.89309 4.70579 5.85316C5.03761 5.56069 5.40299 5.23661 5.80901 4.86008C5.82183 4.84818 5.83507 4.83674 5.8487 4.82577C6.06082 4.65502 6.30838 4.44454 6.57992 4.21367C7.15391 3.72566 7.83504 3.14655 8.51512 2.65897Z" fill="#9E9E9E"/>
</svg>
