<svg width="16" height="20" viewBox="0 0 16 20" fill="none" xmlns="http://www.w3.org/2000/svg">
<path fill-rule="evenodd" clip-rule="evenodd" d="M7.88902 10.619H7.92102C10.849 10.619 13.23 8.238 13.23 5.31C13.23 2.382 10.849 0 7.92102 0C4.99202 0 2.61002 2.382 2.61002 5.307C2.60002 8.227 4.96702 10.61 7.88902 10.619ZM4.03802 5.31C4.03802 3.169 5.78002 1.428 7.92102 1.428C10.061 1.428 11.802 3.169 11.802 5.31C11.802 7.45 10.061 9.192 7.92102 9.192H7.89202C5.76002 9.184 4.03102 7.444 4.03802 5.31Z" fill="#9E9E9E"/>
<path fill-rule="evenodd" clip-rule="evenodd" d="M7.62939e-06 16.1733C7.62939e-06 19.8703 5.96201 19.8703 7.92101 19.8703C11.32 19.8703 15.84 19.4893 15.84 16.1933C15.84 12.4963 9.88001 12.4963 7.92101 12.4963C4.52101 12.4963 7.62939e-06 12.8773 7.62939e-06 16.1733ZM1.50001 16.1733C1.50001 14.7283 3.66001 13.9963 7.92101 13.9963C12.181 13.9963 14.34 14.7353 14.34 16.1933C14.34 17.6383 12.181 18.3703 7.92101 18.3703C3.66001 18.3703 1.50001 17.6313 1.50001 16.1733Z" fill="#9E9E9E"/>
</svg>
